<?xml version="1.0" encoding="UTF-8" standalone="no"?>
<!-- Created with Inkscape (http://www.inkscape.org/) -->

<svg
   xmlns:dc="http://purl.org/dc/elements/1.1/"
   xmlns:cc="http://creativecommons.org/ns#"
   xmlns:rdf="http://www.w3.org/1999/02/22-rdf-syntax-ns#"
   xmlns:svg="http://www.w3.org/2000/svg"
   xmlns="http://www.w3.org/2000/svg"
   xmlns:sodipodi="http://sodipodi.sourceforge.net/DTD/sodipodi-0.dtd"
   xmlns:inkscape="http://www.inkscape.org/namespaces/inkscape"
   version="1.1"
   id="svg885"
   width="793.89258"
   height="793.89252"
   viewBox="0 0 793.89258 793.89252"
   sodipodi:docname="lock-icon.svg"
   inkscape:version="0.92.2 5c3e80d, 2017-08-06"
   inkscape:export-filename="/mnt/storage1/entwicklung/i3lockmore/lock-icon.png"
   inkscape:export-xdpi="30.23"
   inkscape:export-ydpi="30.23">
  <metadata
     id="metadata891">
    <rdf:RDF>
      <cc:Work
         rdf:about="">
        <dc:format>image/svg+xml</dc:format>
        <dc:type
           rdf:resource="http://purl.org/dc/dcmitype/StillImage" />
        <dc:title></dc:title>
      </cc:Work>
    </rdf:RDF>
  </metadata>
  <defs
     id="defs889" />
  <sodipodi:namedview
     pagecolor="#ffffff"
     bordercolor="#666666"
     borderopacity="1"
     objecttolerance="10"
     gridtolerance="10"
     guidetolerance="10"
     inkscape:pageopacity="0"
     inkscape:pageshadow="2"
     inkscape:window-width="640"
     inkscape:window-height="480"
     id="namedview887"
     showgrid="false"
     inkscape:snap-bbox="false"
     inkscape:bbox-nodes="false"
     inkscape:object-paths="true"
     fit-margin-top="0"
     fit-margin-left="0"
     fit-margin-right="0"
     fit-margin-bottom="0"
     inkscape:zoom="0.55795144"
     inkscape:cx="402.81745"
     inkscape:cy="413.44104"
     inkscape:current-layer="svg885" />
  <path
     style="opacity:1;vector-effect:none;fill:#c8c8c8;fill-opacity:0.50232559;stroke:none;stroke-width:49.13385773;stroke-linecap:butt;stroke-linejoin:round;stroke-miterlimit:4;stroke-dasharray:none;stroke-dashoffset:0;stroke-opacity:1;paint-order:markers fill stroke"
     d="M 396.94531 0 A 396.94669 396.94669 0 0 0 0 396.94531 A 396.94669 396.94669 0 0 0 396.94531 793.89258 A 396.94669 396.94669 0 0 1 371.8125 792.63477 L 209.47266 630.29492 C 208.48195 629.43243 207.55257 628.50188 206.68945 627.51172 L 206.60547 627.42773 L 206.60742 627.41797 C 202.45726 622.61488 199.89648 616.4317 199.89648 609.81836 L 199.89648 345.62305 C 199.89648 330.94854 212.47589 318.36719 227.15039 318.36719 L 243.97461 318.36719 L 231.68555 306.07812 C 231.68555 215.09843 305.96562 140.81836 396.94531 140.81836 C 444.22746 140.81836 486.99273 160.88763 517.17188 192.92969 L 517.51367 192.97266 L 787.86719 463.32617 A 396.94669 396.94669 0 0 1 396.94531 793.89258 A 396.94669 396.94669 0 0 0 793.89258 396.94531 A 396.94669 396.94669 0 0 0 396.94531 0 z M 545.13867 233.11133 C 545.26068 233.35758 545.38505 233.60267 545.50586 233.84961 C 545.38498 233.6026 545.26075 233.35765 545.13867 233.11133 z M 546.67773 236.30859 C 546.86248 236.70259 547.05071 237.09457 547.23242 237.49023 C 547.05069 237.09465 546.8625 236.70251 546.67773 236.30859 z M 548.2793 239.83203 C 548.45589 240.2329 548.63511 240.63265 548.80859 241.03516 C 548.63505 240.63264 548.45595 240.23291 548.2793 239.83203 z M 549.80469 243.40625 C 549.98531 243.84404 550.1668 244.28105 550.34375 244.7207 C 550.16676 244.28111 549.98535 243.84399 549.80469 243.40625 z M 551.22461 246.96484 C 551.4103 247.44652 551.59606 247.92829 551.77734 248.41211 C 551.59596 247.9282 551.4104 247.44661 551.22461 246.96484 z M 552.62891 250.74414 C 552.78391 251.1777 552.93838 251.61168 553.08984 252.04688 C 552.93831 251.61164 552.78398 251.17773 552.62891 250.74414 z M 553.90039 254.43164 C 554.06314 254.9235 554.22263 255.41629 554.38086 255.91016 C 554.22262 255.41644 554.06315 254.92335 553.90039 254.43164 z M 555.06641 258.10156 C 555.23772 258.66329 555.40486 259.22681 555.57031 259.79102 C 555.40479 259.22679 555.23779 258.66331 555.06641 258.10156 z M 556.16797 261.86914 C 556.33581 262.47086 556.49705 263.07526 556.6582 263.67969 C 556.49698 263.07521 556.33589 262.47091 556.16797 261.86914 z M 557.19141 265.71875 C 557.3449 266.3258 557.49195 266.93526 557.63867 267.54492 C 557.49186 266.93512 557.345 266.32594 557.19141 265.71875 z M 558.13477 269.65234 C 558.27008 270.24923 558.39855 270.84798 558.52734 271.44727 C 558.39855 270.84823 558.27007 270.24899 558.13477 269.65234 z M 558.9668 273.5332 C 559.09445 274.16731 559.21366 274.80474 559.33398 275.44141 C 559.21355 274.80443 559.09457 274.16762 558.9668 273.5332 z M 559.72266 277.55078 C 559.82642 278.14221 559.92211 278.73655 560.01953 279.33008 C 559.92207 278.73649 559.82647 278.14226 559.72266 277.55078 z M 560.37109 281.52539 C 560.46874 282.17537 560.55649 282.82808 560.64648 283.48047 C 560.55649 282.82832 560.46874 282.17514 560.37109 281.52539 z M 560.92188 285.51562 C 561.00658 286.19213 561.07981 286.87182 561.15625 287.55078 C 561.07978 286.87179 561.00662 286.19215 560.92188 285.51562 z M 561.38281 289.60156 C 561.45484 290.32264 561.51352 291.04777 561.57617 291.77148 C 561.51348 291.04755 561.45489 290.32285 561.38281 289.60156 z M 561.73633 293.63867 C 561.80431 294.54358 561.85694 295.45251 561.91016 296.36133 C 561.85693 295.4527 561.80432 294.54338 561.73633 293.63867 z M 561.99219 297.72266 C 562.04066 298.68656 562.07179 299.65497 562.10352 300.62305 C 562.07177 299.65469 562.04069 298.68683 561.99219 297.72266 z M 562.15234 301.91797 C 562.18686 303.30082 562.20508 304.68726 562.20508 306.07812 C 562.20508 304.68763 562.18685 303.30045 562.15234 301.91797 z M 217.31836 635.12891 C 217.4531 635.18364 217.58697 635.24038 217.72266 635.29297 C 217.58698 635.24047 217.45309 635.18355 217.31836 635.12891 z M 218.44922 635.55859 C 218.59669 635.61092 218.74408 635.66311 218.89258 635.71289 C 218.74396 635.66316 218.59681 635.61088 218.44922 635.55859 z M 219.66797 635.95898 C 219.80698 636.0009 219.94612 636.04237 220.08594 636.08203 C 219.94613 636.04245 219.80696 636.00082 219.66797 635.95898 z M 220.85352 636.28711 C 221.0138 636.3274 221.17469 636.36504 221.33594 636.40234 C 221.17471 636.36512 221.01378 636.32732 220.85352 636.28711 z M 222.07812 636.56445 C 222.25901 636.60079 222.44107 636.63347 222.62305 636.66602 C 222.44119 636.63356 222.2589 636.6007 222.07812 636.56445 z M 223.28125 636.77734 C 223.52298 636.81417 223.76633 636.84497 224.00977 636.875 C 223.7661 636.845 223.52321 636.81414 223.28125 636.77734 z M 224.55078 636.93945 C 224.87956 636.97296 225.2095 636.99671 225.54102 637.01758 C 225.20986 636.99677 224.87923 636.97285 224.55078 636.93945 z M 225.8125 637.03711 C 226.25624 637.06031 226.70241 637.07422 227.15039 637.07422 C 226.70227 637.07422 226.25641 637.06028 225.8125 637.03711 z "
     id="path915" />
  <path
     style="opacity:1;vector-effect:none;fill:#b4b4b4;fill-opacity:0.50232559;stroke:none;stroke-width:49.13385773;stroke-linecap:butt;stroke-linejoin:round;stroke-miterlimit:4;stroke-dasharray:none;stroke-dashoffset:0;stroke-opacity:1;paint-order:markers fill stroke"
     d="m 396.94532,189.95117 c -64.42579,0 -116.125,51.70117 -116.125,116.12696 h -49.13477 l 12.28906,12.28906 h 322.76563 c 14.6745,0 27.25586,12.58135 27.25586,27.25586 v 264.19531 c 0,14.67451 -12.58136,27.25586 -27.25586,27.25586 H 227.15039 c -6.64938,0 -12.86411,-2.58862 -17.67773,-6.7793 L 371.8125,792.63473 a 396.94669,396.94669 0 0 0 25.13282,1.2578 396.94669,396.94669 0 0 0 390.92184,-330.56636 l -270.35348,-270.35351 -0.3418,-0.043 c 27.89117,29.61286 45.0332,69.45089 45.0332,113.14844 h -49.13281 c 0,-64.42579 -51.70117,-116.12695 -116.12695,-116.12696 z M 249.0293,367.50195 V 587.94141 H 544.86133 V 367.50195 Z m 149.10742,18.8125 a 52.423916,52.423916 0 0 1 52.42383,52.42383 52.423916,52.423916 0 0 1 -29.125,46.93555 v 83.45312 h -46.59961 v -83.49609 a 52.423916,52.423916 0 0 1 -29.12305,-46.89258 52.423916,52.423916 0 0 1 52.42383,-52.42383 z m -191.52929,241.10157 -0.002,0.0117 0.084,0.084 c -0.0276,-0.0317 -0.0546,-0.0639 -0.082,-0.0957 z"
     id="rect4608"
     inkscape:connector-curvature="0" />
</svg>
